<?xml version="1.0" standalone="no"?>
<!DOCTYPE svg PUBLIC "-//W3C//DTD SVG 20010904//EN"
 "http://www.w3.org/TR/2001/REC-SVG-20010904/DTD/svg10.dtd">
<svg version="1.0" xmlns="http://www.w3.org/2000/svg"
 width="167.000000pt" height="171.000000pt" viewBox="0 0 167.000000 171.000000"
 preserveAspectRatio="xMidYMid meet">
<metadata>
Created by potrace 1.10, written by Peter Selinger 2001-2011
</metadata>
<g transform="translate(0.000000,171.000000) scale(0.100000,-0.100000)"
fill="#000000" stroke="none">
<path d="M514 1672 c-151 -54 -241 -157 -252 -287 l-4 -62 -78 -42 c-42 -24
-99 -60 -126 -80 -47 -35 -49 -39 -52 -92 -3 -54 -2 -57 28 -69 35 -14 143 -8
247 14 l63 13 55 -43 c79 -61 133 -79 235 -79 75 0 93 4 151 31 37 18 84 48
106 68 54 48 101 139 109 209 l7 57 91 52 c105 60 176 126 176 162 0 15 -12
34 -32 51 -32 27 -36 27 -118 21 -47 -3 -101 -10 -120 -15 -88 -23 -88 -23
-127 13 -21 18 -63 46 -93 61 -72 36 -190 44 -266 17z m259 -56 c30 -14 71
-44 89 -64 l34 -38 70 18 c100 26 234 34 258 16 16 -12 17 -18 7 -37 -13 -23
-119 -97 -204 -141 -46 -24 -49 -24 -62 -7 -19 26 -11 39 41 76 121 88 -21 75
-341 -29 -222 -72 -260 -82 -310 -82 -71 1 -77 36 -25 147 33 69 92 120 180
154 78 30 186 25 263 -13z m153 -205 c-13 -23 -23 -29 -65 -35 -27 -4 -136
-35 -243 -70 -200 -66 -295 -92 -304 -83 -8 8 26 68 35 63 15 -9 143 24 324
83 197 64 211 68 245 70 22 1 22 0 8 -28z m22 -83 c17 -17 15 -77 -3 -129 -34
-96 -100 -158 -213 -199 -116 -42 -250 -12 -338 77 l-37 37 -81 -17 c-103 -22
-227 -31 -245 -19 -39 27 24 89 180 175 75 42 75 42 82 23 4 -9 -14 -27 -49
-51 -97 -64 -53 -80 108 -41 57 13 178 49 269 80 230 77 300 91 327 64z"/>
<path d="M511 861 c-24 -4 -50 -16 -57 -26 -11 -15 -14 -86 -14 -345 l0 -327
23 -21 c22 -21 33 -22 189 -22 148 0 168 2 189 19 l24 19 3 325 3 325 -23 26
c-22 24 -29 25 -158 30 -74 3 -155 1 -179 -3z m319 -368 l0 -333 -177 0 -178
0 2 332 c2 183 3 333 3 333 0 0 79 0 175 0 l175 0 0 -332z"/>
<path d="M970 840 c-19 -19 -20 -33 -20 -348 l0 -329 24 -22 c23 -22 28 -22
237 -19 200 3 217 5 256 26 134 71 189 212 127 327 -20 39 -23 53 -15 74 32
87 15 166 -54 234 -69 69 -103 77 -337 77 -185 0 -199 -1 -218 -20z m457 -36
c56 -20 119 -92 128 -144 8 -50 -1 -92 -26 -125 -11 -14 -16 -25 -10 -25 6 0
22 -17 36 -39 29 -43 35 -113 15 -166 -17 -44 -68 -94 -125 -121 -48 -23 -60
-24 -255 -24 l-205 0 3 332 2 333 198 -3 c149 -2 207 -6 239 -18z"/>
</g>
</svg>
